# MagicaVoxel @ Ephtracy

# group
o 

# material
mtllib 6uniteled.mtl
usemtl palette

# normals
vn -1 0 0
vn 1 0 0
vn 0 0 1
vn 0 0 -1
vn 0 -1 0
vn 0 1 0

# texcoords
vt 0.615234 0.5
vt 0.716797 0.5
vt 0.744141 0.5

# verts
v -2 0 2
v -2 0 -2.38419e-07
v -2 0 -0.2
v -2 0 -2
v -2 0.1 -2.38419e-07
v -2 0.1 -0.2
v -2 1.9 2
v -2 1.9 1.8
v -2 2.5 2
v -2 2.5 1.8
v -2 4 2
v -2 4 -2
v 0.3 0 -2.38419e-07
v 0.3 0 -0.2
v 0.3 0.1 -2.38419e-07
v 0.3 0.1 -0.2
v 0.3 2.3 1.9
v 0.3 2.3 1.8
v 0.3 2.4 2
v 0.3 2.4 1.9
v 0.3 2.5 2
v 0.3 2.5 1.8
v 0.4 0.1 2
v 0.4 0.1 1.9
v 0.4 0.6 2
v 0.4 0.6 1.9
v 0.2 1.4 -1.1
v 0.2 1.4 -1.3
v 0.2 1.4 -2
v 0.2 1.9 -1.1
v 0.2 1.9 -1.3
v 0.2 2 -1.1
v 0.2 2 -2
v 0.3 0.1 2
v 0.3 0.1 0.3
v 0.3 0.1 0.2
v 0.3 0.1 -2.38419e-07
v 0.3 0.1 -0.2
v 0.3 0.2 0.4
v 0.3 0.2 0.3
v 0.3 0.2 0.2
v 0.3 0.3 0.5
v 0.3 0.3 0.4
v 0.3 0.3 0.3
v 0.3 0.4 0.6
v 0.3 0.4 0.5
v 0.3 0.4 0.4
v 0.3 0.5 0.7
v 0.3 0.5 0.6
v 0.3 0.5 0.5
v 0.3 0.6 2
v 0.3 0.6 0.8
v 0.3 0.6 0.7
v 0.3 0.6 0.6
v 0.3 0.6 0.5
v 0.3 0.6 -0.2
v 0.3 0.7 0.8
v 0.3 0.7 0.7
v 0.3 0.8 0.9
v 0.3 0.8 0.8
v 0.3 0.9 1
v 0.3 0.9 0.9
v 0.3 1 1.1
v 0.3 1 1
v 0.3 1.1 1.2
v 0.3 1.1 1.1
v 0.3 1.2 1.3
v 0.3 1.2 1.2
v 0.3 1.3 1.4
v 0.3 1.3 1.3
v 0.3 1.4 1.5
v 0.3 1.4 1.4
v 0.3 1.5 1.6
v 0.3 1.5 1.5
v 0.3 1.6 1.7
v 0.3 1.6 1.6
v 0.3 1.7 1.8
v 0.3 1.7 1.7
v 0.3 1.8 1.9
v 0.3 1.8 1.8
v 0.3 1.9 1.9
v 0.3 1.9 1.8
v 0.3 2.2 1.7
v 0.3 2.2 0.5
v 0.3 2.3 1.8
v 0.3 2.3 1.7
v 0.4 0 1.9
v 0.4 0 -2.38419e-07
v 0.4 0 -0.2
v 0.4 0 -2
v 0.4 0.1 1.9
v 0.4 0.1 0.3
v 0.4 0.1 0.2
v 0.4 0.1 -2.38419e-07
v 0.4 0.1 -0.2
v 0.4 0.2 0.4
v 0.4 0.2 0.3
v 0.4 0.2 0.2
v 0.4 0.3 0.5
v 0.4 0.3 0.4
v 0.4 0.3 0.3
v 0.4 0.4 0.6
v 0.4 0.4 0.5
v 0.4 0.4 0.4
v 0.4 0.5 0.7
v 0.4 0.5 0.6
v 0.4 0.5 0.5
v 0.4 0.6 1.9
v 0.4 0.6 0.8
v 0.4 0.6 0.7
v 0.4 0.6 0.6
v 0.4 0.6 0.5
v 0.4 0.6 -0.2
v 0.4 0.7 0.9
v 0.4 0.7 0.8
v 0.4 0.7 0.7
v 0.4 0.8 1
v 0.4 0.8 0.9
v 0.4 0.8 0.8
v 0.4 0.9 1.1
v 0.4 0.9 1
v 0.4 0.9 0.9
v 0.4 1 1.2
v 0.4 1 1.1
v 0.4 1 1
v 0.4 1.1 1.3
v 0.4 1.1 1.2
v 0.4 1.1 1.1
v 0.4 1.2 1.4
v 0.4 1.2 1.3
v 0.4 1.2 1.2
v 0.4 1.2 -2.38419e-07
v 0.4 1.2 -0.1
v 0.4 1.3 1.5
v 0.4 1.3 1.4
v 0.4 1.3 1.3
v 0.4 1.3 -0.1
v 0.4 1.3 -0.5
v 0.4 1.3 -0.7
v 0.4 1.3 -1.1
v 0.4 1.4 1.6
v 0.4 1.4 1.5
v 0.4 1.4 1.4
v 0.4 1.4 -0.1
v 0.4 1.4 -0.5
v 0.4 1.4 -0.7
v 0.4 1.4 -1.1
v 0.4 1.4 -2
v 0.4 1.5 1.7
v 0.4 1.5 1.6
v 0.4 1.5 1.5
v 0.4 1.6 1.8
v 0.4 1.6 1.7
v 0.4 1.6 1.6
v 0.4 1.7 1.9
v 0.4 1.7 1.8
v 0.4 1.7 1.7
v 0.4 1.8 1.9
v 0.4 1.8 1.8
v 0.4 2 -2.38419e-07
v 0.4 2 -0.1
v 0.4 2 -1.1
v 0.4 2 -2
v 0.4 2.2 1.7
v 0.4 2.2 0.5
v 0.4 2.3 1.9
v 0.4 2.3 1.7
v 0.4 2.4 2
v 0.4 2.4 1.9
v 0.4 4 2
v 0.4 4 -2
v 0.5 0 -2.38419e-07
v 0.5 0 -0.2
v 0.5 0.1 -2.38419e-07
v 0.5 0.1 -0.2
v 0.5 1.2 -2.38419e-07
v 0.5 1.2 -0.1
v 0.5 1.3 -0.1
v 0.5 1.3 -0.5
v 0.5 1.3 -0.7
v 0.5 1.3 -1.1
v 0.5 1.4 -0.1
v 0.5 1.4 -0.5
v 0.5 1.4 -0.7
v 0.5 1.4 -1.1
v 0.5 2 -2.38419e-07
v 0.5 2 -0.1
v 2 0 2
v 2 0 1.9
v 2 1.9 2
v 2 1.9 1.9
v -2 0 2
v -2 1.9 2
v -2 2.5 2
v -2 4 2
v 0.3 0.1 2
v 0.3 0.6 2
v 0.3 1.8 2
v 0.3 1.9 2
v 0.3 2.4 2
v 0.3 2.5 2
v 0.4 0 2
v 0.4 0.1 2
v 0.4 0.6 2
v 0.4 1.8 2
v 0.4 2.4 2
v 0.4 4 2
v 2 0 2
v 2 1.9 2
v 0.3 2.3 1.9
v 0.3 2.4 1.9
v 0.4 2.3 1.9
v 0.4 2.4 1.9
v -2 1.9 1.8
v -2 2.5 1.8
v 0.3 1.9 1.8
v 0.3 2.3 1.8
v 0.3 2.5 1.8
v 0.3 2.2 1.7
v 0.3 2.3 1.7
v 0.4 2.2 1.7
v 0.4 2.3 1.7
v 0.3 0.5 0.7
v 0.3 0.6 0.7
v 0.4 0.5 0.7
v 0.4 0.6 0.7
v 0.3 0.4 0.6
v 0.3 0.5 0.6
v 0.4 0.4 0.6
v 0.4 0.5 0.6
v 0.3 0.3 0.5
v 0.3 0.4 0.5
v 0.3 0.6 0.5
v 0.3 2.2 0.5
v 0.4 0.3 0.5
v 0.4 0.4 0.5
v 0.4 0.6 0.5
v 0.4 2.2 0.5
v 0.3 0.2 0.4
v 0.3 0.3 0.4
v 0.4 0.2 0.4
v 0.4 0.3 0.4
v 0.3 0.1 0.3
v 0.3 0.2 0.3
v 0.4 0.1 0.3
v 0.4 0.2 0.3
v 0.4 0 -2.38419e-07
v 0.4 0.1 -2.38419e-07
v 0.4 1.2 -2.38419e-07
v 0.4 2 -2.38419e-07
v 0.5 0 -2.38419e-07
v 0.5 0.1 -2.38419e-07
v 0.5 1.2 -2.38419e-07
v 0.5 2 -2.38419e-07
v -2 0 -0.2
v -2 0.1 -0.2
v 0.3 0 -0.2
v 0.3 0.1 -0.2
v 0.3 0.6 -0.2
v 0.4 0.1 -0.2
v 0.4 0.6 -0.2
v 0.4 1.3 -0.7
v 0.4 1.4 -0.7
v 0.5 1.3 -0.7
v 0.5 1.4 -0.7
v 0.3 1.8 1.9
v 0.3 1.9 1.9
v 0.4 0 1.9
v 0.4 0.1 1.9
v 0.4 0.6 1.9
v 0.4 1.7 1.9
v 0.4 1.8 1.9
v 2 0 1.9
v 2 1.9 1.9
v 0.3 1.7 1.8
v 0.3 1.8 1.8
v 0.4 1.7 1.8
v 0.4 1.8 1.8
v 0.3 1.6 1.7
v 0.3 1.7 1.7
v 0.4 1.6 1.7
v 0.4 1.7 1.7
v 0.3 1.5 1.6
v 0.3 1.6 1.6
v 0.4 1.5 1.6
v 0.4 1.6 1.6
v 0.3 1.4 1.5
v 0.3 1.5 1.5
v 0.4 1.4 1.5
v 0.4 1.5 1.5
v 0.3 1.3 1.4
v 0.3 1.4 1.4
v 0.4 1.3 1.4
v 0.4 1.4 1.4
v 0.3 1.2 1.3
v 0.3 1.3 1.3
v 0.4 1.2 1.3
v 0.4 1.3 1.3
v 0.3 1.1 1.2
v 0.3 1.2 1.2
v 0.4 1.1 1.2
v 0.4 1.2 1.2
v 0.3 1 1.1
v 0.3 1.1 1.1
v 0.4 1 1.1
v 0.4 1.1 1.1
v 0.3 0.9 1
v 0.3 1 1
v 0.4 0.9 1
v 0.4 1 1
v 0.3 0.8 0.9
v 0.3 0.9 0.9
v 0.4 0.8 0.9
v 0.4 0.9 0.9
v 0.3 0.7 0.8
v 0.3 0.8 0.8
v 0.4 0.7 0.8
v 0.4 0.8 0.8
v 0.3 0.6 0.7
v 0.3 0.7 0.7
v 0.4 0.6 0.7
v 0.4 0.7 0.7
v 0.3 0.5 0.6
v 0.3 0.6 0.6
v 0.4 0.5 0.6
v 0.4 0.6 0.6
v 0.3 0.4 0.5
v 0.3 0.5 0.5
v 0.4 0.4 0.5
v 0.4 0.5 0.5
v 0.3 0.3 0.4
v 0.3 0.4 0.4
v 0.4 0.3 0.4
v 0.4 0.4 0.4
v 0.3 0.2 0.3
v 0.3 0.3 0.3
v 0.4 0.2 0.3
v 0.4 0.3 0.3
v 0.3 0.1 0.2
v 0.3 0.2 0.2
v 0.4 0.1 0.2
v 0.4 0.2 0.2
v -2 0 -2.38419e-07
v -2 0.1 -2.38419e-07
v 0.3 0 -2.38419e-07
v 0.3 0.1 -2.38419e-07
v 0.4 1.2 -0.1
v 0.4 1.3 -0.1
v 0.4 1.4 -0.1
v 0.4 2 -0.1
v 0.5 1.2 -0.1
v 0.5 1.3 -0.1
v 0.5 1.4 -0.1
v 0.5 2 -0.1
v 0.4 0 -0.2
v 0.4 0.1 -0.2
v 0.5 0 -0.2
v 0.5 0.1 -0.2
v 0.4 1.3 -0.5
v 0.4 1.4 -0.5
v 0.5 1.3 -0.5
v 0.5 1.4 -0.5
v 0.2 1.4 -1.1
v 0.2 1.9 -1.1
v 0.2 2 -1.1
v 0.4 1.3 -1.1
v 0.4 1.4 -1.1
v 0.4 2 -1.1
v 0.5 1.3 -1.1
v 0.5 1.4 -1.1
v -2 0 -2
v -2 4 -2
v 0.2 1.4 -2
v 0.2 2 -2
v 0.4 0 -2
v 0.4 1.4 -2
v 0.4 2 -2
v 0.4 4 -2
v -2 0 2
v 0.4 0 2
v 2 0 2
v 0.4 0 1.9
v 2 0 1.9
v -2 0 -2.38419e-07
v 0.3 0 -2.38419e-07
v 0.4 0 -2.38419e-07
v 0.5 0 -2.38419e-07
v -2 0 -0.2
v 0.3 0 -0.2
v 0.4 0 -0.2
v 0.5 0 -0.2
v -2 0 -2
v 0.4 0 -2
v -2 0.1 -2.38419e-07
v 0.3 0.1 -2.38419e-07
v -2 0.1 -0.2
v 0.3 0.1 -0.2
v 0.3 0.2 0.4
v 0.4 0.2 0.4
v 0.3 0.2 0.3
v 0.4 0.2 0.3
v 0.3 0.3 0.5
v 0.4 0.3 0.5
v 0.3 0.3 0.4
v 0.4 0.3 0.4
v 0.3 0.4 0.6
v 0.4 0.4 0.6
v 0.3 0.4 0.5
v 0.4 0.4 0.5
v 0.3 0.5 0.7
v 0.4 0.5 0.7
v 0.3 0.5 0.6
v 0.4 0.5 0.6
v 0.3 0.6 2
v 0.4 0.6 2
v 0.4 0.6 1.9
v 0.3 0.6 0.8
v 0.4 0.6 0.8
v 0.3 0.6 0.7
v 0.4 0.6 0.7
v 0.3 0.6 0.5
v 0.4 0.6 0.5
v 0.3 0.6 -0.2
v 0.4 0.6 -0.2
v 0.4 1.2 -2.38419e-07
v 0.5 1.2 -2.38419e-07
v 0.4 1.2 -0.1
v 0.5 1.2 -0.1
v 0.4 1.3 -0.1
v 0.5 1.3 -0.1
v 0.4 1.3 -0.5
v 0.5 1.3 -0.5
v 0.4 1.3 -0.7
v 0.5 1.3 -0.7
v 0.4 1.3 -1.1
v 0.5 1.3 -1.1
v 0.2 2 -1.1
v 0.4 2 -1.1
v 0.2 2 -2
v 0.4 2 -2
v 0.3 2.2 1.7
v 0.4 2.2 1.7
v 0.3 2.2 0.5
v 0.4 2.2 0.5
v 0.3 2.3 1.9
v 0.4 2.3 1.9
v 0.3 2.3 1.8
v 0.3 2.3 1.7
v 0.4 2.3 1.7
v 0.3 2.4 2
v 0.4 2.4 2
v 0.3 2.4 1.9
v 0.4 2.4 1.9
v -2 2.5 2
v 0.3 2.5 2
v -2 2.5 1.8
v 0.3 2.5 1.8
v 0.3 0.1 2
v 0.4 0.1 2
v 0.4 0.1 1.9
v 0.3 0.1 0.3
v 0.4 0.1 0.3
v 0.3 0.1 0.2
v 0.4 0.1 0.2
v 0.3 0.1 -2.38419e-07
v 0.4 0.1 -2.38419e-07
v 0.5 0.1 -2.38419e-07
v 0.3 0.1 -0.2
v 0.4 0.1 -0.2
v 0.5 0.1 -0.2
v 0.3 0.2 0.3
v 0.4 0.2 0.3
v 0.3 0.2 0.2
v 0.4 0.2 0.2
v 0.3 0.3 0.4
v 0.4 0.3 0.4
v 0.3 0.3 0.3
v 0.4 0.3 0.3
v 0.3 0.4 0.5
v 0.4 0.4 0.5
v 0.3 0.4 0.4
v 0.4 0.4 0.4
v 0.3 0.5 0.6
v 0.4 0.5 0.6
v 0.3 0.5 0.5
v 0.4 0.5 0.5
v 0.3 0.6 0.7
v 0.4 0.6 0.7
v 0.3 0.6 0.6
v 0.4 0.6 0.6
v 0.3 0.7 0.8
v 0.4 0.7 0.8
v 0.3 0.7 0.7
v 0.4 0.7 0.7
v 0.3 0.8 0.9
v 0.4 0.8 0.9
v 0.3 0.8 0.8
v 0.4 0.8 0.8
v 0.3 0.9 1
v 0.4 0.9 1
v 0.3 0.9 0.9
v 0.4 0.9 0.9
v 0.3 1 1.1
v 0.4 1 1.1
v 0.3 1 1
v 0.4 1 1
v 0.3 1.1 1.2
v 0.4 1.1 1.2
v 0.3 1.1 1.1
v 0.4 1.1 1.1
v 0.3 1.2 1.3
v 0.4 1.2 1.3
v 0.3 1.2 1.2
v 0.4 1.2 1.2
v 0.3 1.3 1.4
v 0.4 1.3 1.4
v 0.3 1.3 1.3
v 0.4 1.3 1.3
v 0.3 1.4 1.5
v 0.4 1.4 1.5
v 0.3 1.4 1.4
v 0.4 1.4 1.4
v 0.4 1.4 -0.1
v 0.5 1.4 -0.1
v 0.4 1.4 -0.5
v 0.5 1.4 -0.5
v 0.4 1.4 -0.7
v 0.5 1.4 -0.7
v 0.2 1.4 -1.1
v 0.4 1.4 -1.1
v 0.5 1.4 -1.1
v 0.2 1.4 -1.3
v 0.2 1.4 -2
v 0.4 1.4 -2
v 0.3 1.5 1.6
v 0.4 1.5 1.6
v 0.3 1.5 1.5
v 0.4 1.5 1.5
v 0.3 1.6 1.7
v 0.4 1.6 1.7
v 0.3 1.6 1.6
v 0.4 1.6 1.6
v 0.3 1.7 1.8
v 0.4 1.7 1.8
v 0.3 1.7 1.7
v 0.4 1.7 1.7
v 0.3 1.8 1.9
v 0.4 1.8 1.9
v 0.3 1.8 1.8
v 0.4 1.8 1.8
v -2 1.9 2
v 0.3 1.9 2
v 2 1.9 2
v 0.3 1.9 1.9
v 2 1.9 1.9
v -2 1.9 1.8
v 0.3 1.9 1.8
v 0.4 2 -2.38419e-07
v 0.5 2 -2.38419e-07
v 0.4 2 -0.1
v 0.5 2 -0.1
v -2 4 2
v 0.4 4 2
v -2 4 -2
v 0.4 4 -2

# faces
f 5/1/1 2/1/1 1/1/1
f 6/1/1 4/1/1 3/1/1
f 7/1/1 5/1/1 1/1/1
f 7/1/1 6/1/1 5/1/1
f 8/1/1 6/1/1 7/1/1
f 10/1/1 6/1/1 8/1/1
f 11/1/1 10/1/1 9/1/1
f 12/1/1 4/1/1 6/1/1
f 12/1/1 10/1/1 11/1/1
f 12/1/1 6/1/1 10/1/1
f 15/2/1 14/2/1 13/2/1
f 16/2/1 14/2/1 15/2/1
f 20/1/1 18/1/1 17/1/1
f 21/1/1 20/1/1 19/1/1
f 22/1/1 18/1/1 20/1/1
f 22/1/1 20/1/1 21/1/1
f 25/2/1 24/2/1 23/2/1
f 26/2/1 24/2/1 25/2/1
f 27/2/2 28/2/2 30/2/2
f 28/1/2 29/1/2 31/1/2
f 30/2/2 28/2/2 31/2/2
f 30/1/2 31/1/2 32/1/2
f 31/1/2 29/1/2 33/1/2
f 32/1/2 31/1/2 33/1/2
f 34/1/2 35/1/2 39/1/2
f 39/1/2 35/1/2 40/1/2
f 37/1/2 38/1/2 41/1/2
f 36/1/2 37/1/2 41/1/2
f 34/1/2 39/1/2 42/1/2
f 42/1/2 39/1/2 43/1/2
f 40/1/2 41/1/2 44/1/2
f 34/1/2 42/1/2 45/1/2
f 45/1/2 42/1/2 46/1/2
f 43/1/2 44/1/2 47/1/2
f 34/1/2 45/1/2 48/1/2
f 48/1/2 45/1/2 49/1/2
f 46/1/2 47/1/2 50/1/2
f 34/1/2 48/1/2 51/1/2
f 51/1/2 48/1/2 52/1/2
f 52/1/2 48/1/2 53/1/2
f 49/1/2 50/1/2 54/1/2
f 50/1/2 47/1/2 55/1/2
f 54/1/2 50/1/2 55/1/2
f 41/1/2 38/1/2 56/1/2
f 55/1/2 47/1/2 56/1/2
f 44/1/2 41/1/2 56/1/2
f 47/1/2 44/1/2 56/1/2
f 54/1/2 55/1/2 58/1/2
f 53/1/2 54/1/2 58/1/2
f 57/1/2 58/1/2 60/1/2
f 59/1/2 60/1/2 62/1/2
f 61/1/2 62/1/2 64/1/2
f 63/1/2 64/1/2 66/1/2
f 65/1/2 66/1/2 68/1/2
f 67/1/2 68/1/2 70/1/2
f 69/1/2 70/1/2 72/1/2
f 71/1/2 72/1/2 74/1/2
f 73/1/2 74/1/2 76/1/2
f 75/1/2 76/1/2 78/1/2
f 77/1/2 78/1/2 80/1/2
f 79/1/2 80/1/2 81/1/2
f 80/1/2 78/1/2 82/1/2
f 81/1/2 80/1/2 82/1/2
f 78/1/2 76/1/2 83/1/2
f 82/1/2 78/1/2 83/1/2
f 58/1/2 55/1/2 84/1/2
f 83/1/2 76/1/2 84/1/2
f 60/1/2 58/1/2 84/1/2
f 62/1/2 60/1/2 84/1/2
f 64/1/2 62/1/2 84/1/2
f 66/1/2 64/1/2 84/1/2
f 76/1/2 74/1/2 84/1/2
f 68/1/2 66/1/2 84/1/2
f 74/1/2 72/1/2 84/1/2
f 70/1/2 68/1/2 84/1/2
f 72/1/2 70/1/2 84/1/2
f 82/1/2 83/1/2 85/1/2
f 85/1/2 83/1/2 86/1/2
f 87/1/2 88/1/2 91/1/2
f 91/1/2 88/1/2 92/1/2
f 92/1/2 88/1/2 93/1/2
f 93/1/2 88/1/2 94/1/2
f 89/1/2 90/1/2 95/1/2
f 92/2/2 93/2/2 97/2/2
f 97/2/2 93/2/2 98/2/2
f 96/2/2 97/2/2 100/2/2
f 100/2/2 97/2/2 101/2/2
f 99/2/2 100/2/2 103/2/2
f 103/2/2 100/2/2 104/2/2
f 102/2/2 103/2/2 106/2/2
f 106/2/2 103/2/2 107/2/2
f 105/2/2 106/2/2 110/2/2
f 110/2/2 106/2/2 111/2/2
f 95/1/2 90/1/2 113/1/2
f 108/1/2 109/1/2 114/1/2
f 109/2/2 110/2/2 115/2/2
f 114/1/2 109/1/2 115/1/2
f 115/2/2 110/2/2 116/2/2
f 108/1/2 114/1/2 117/1/2
f 114/2/2 115/2/2 118/2/2
f 117/1/2 114/1/2 118/1/2
f 118/2/2 115/2/2 119/2/2
f 108/1/2 117/1/2 120/1/2
f 117/2/2 118/2/2 121/2/2
f 120/1/2 117/1/2 121/1/2
f 121/2/2 118/2/2 122/2/2
f 108/1/2 120/1/2 123/1/2
f 120/2/2 121/2/2 124/2/2
f 123/1/2 120/1/2 124/1/2
f 124/2/2 121/2/2 125/2/2
f 108/1/2 123/1/2 126/1/2
f 123/2/2 124/2/2 127/2/2
f 126/1/2 123/1/2 127/1/2
f 127/2/2 124/2/2 128/2/2
f 108/1/2 126/1/2 129/1/2
f 126/2/2 127/2/2 130/2/2
f 129/1/2 126/1/2 130/1/2
f 130/2/2 127/2/2 131/2/2
f 112/1/2 113/1/2 132/1/2
f 132/1/2 113/1/2 133/1/2
f 108/1/2 129/1/2 134/1/2
f 129/2/2 130/2/2 135/2/2
f 134/1/2 129/1/2 135/1/2
f 135/2/2 130/2/2 136/2/2
f 133/1/2 113/1/2 137/1/2
f 113/1/2 90/1/2 138/1/2
f 137/1/2 113/1/2 138/1/2
f 138/1/2 90/1/2 139/1/2
f 139/1/2 90/1/2 140/1/2
f 108/1/2 134/1/2 141/1/2
f 134/2/2 135/2/2 142/2/2
f 141/1/2 134/1/2 142/1/2
f 142/2/2 135/2/2 143/2/2
f 138/1/2 139/1/2 145/1/2
f 145/1/2 139/1/2 146/1/2
f 140/1/2 90/1/2 147/1/2
f 147/1/2 90/1/2 148/1/2
f 108/1/2 141/1/2 149/1/2
f 141/2/2 142/2/2 150/2/2
f 149/1/2 141/1/2 150/1/2
f 150/2/2 142/2/2 151/2/2
f 108/1/2 149/1/2 152/1/2
f 149/2/2 150/2/2 153/2/2
f 152/1/2 149/1/2 153/1/2
f 153/2/2 150/2/2 154/2/2
f 108/1/2 152/1/2 155/1/2
f 152/2/2 153/2/2 156/2/2
f 155/1/2 152/1/2 156/1/2
f 156/2/2 153/2/2 157/2/2
f 155/2/2 156/2/2 158/2/2
f 158/2/2 156/2/2 159/2/2
f 112/1/2 132/1/2 160/1/2
f 145/1/2 146/1/2 161/1/2
f 146/1/2 147/1/2 161/1/2
f 144/1/2 145/1/2 161/1/2
f 161/1/2 147/1/2 162/1/2
f 112/1/2 160/1/2 165/1/2
f 162/1/2 163/1/2 165/1/2
f 161/1/2 162/1/2 165/1/2
f 160/1/2 161/1/2 165/1/2
f 164/1/2 165/1/2 167/1/2
f 166/1/2 167/1/2 169/1/2
f 168/1/2 169/1/2 170/1/2
f 165/1/2 163/1/2 171/1/2
f 170/1/2 169/1/2 171/1/2
f 167/1/2 165/1/2 171/1/2
f 169/1/2 167/1/2 171/1/2
f 172/2/2 173/2/2 174/2/2
f 174/2/2 173/2/2 175/2/2
f 176/3/2 177/3/2 178/3/2
f 176/3/2 178/3/2 182/3/2
f 178/3/2 179/3/2 182/3/2
f 182/3/2 179/3/2 183/3/2
f 180/3/2 181/3/2 184/3/2
f 184/3/2 181/3/2 185/3/2
f 176/3/2 182/3/2 186/3/2
f 186/3/2 182/3/2 187/3/2
f 188/2/2 189/2/2 190/2/2
f 190/2/2 189/2/2 191/2/2
f 196/1/3 193/1/3 192/1/3
f 197/1/3 193/1/3 196/1/3
f 198/1/3 193/1/3 197/1/3
f 199/1/3 193/1/3 198/1/3
f 201/1/3 195/1/3 194/1/3
f 202/1/3 196/1/3 192/1/3
f 203/1/3 196/1/3 202/1/3
f 204/1/3 198/1/3 197/1/3
f 205/2/3 199/2/3 198/2/3
f 205/1/3 198/1/3 204/1/3
f 206/1/3 201/1/3 200/1/3
f 207/1/3 195/1/3 201/1/3
f 207/1/3 201/1/3 206/1/3
f 208/2/3 204/2/3 203/2/3
f 208/2/3 203/2/3 202/2/3
f 208/2/3 205/2/3 204/2/3
f 209/2/3 199/2/3 205/2/3
f 209/2/3 205/2/3 208/2/3
f 212/1/3 211/1/3 210/1/3
f 213/1/3 211/1/3 212/1/3
f 216/1/3 215/1/3 214/1/3
f 217/1/3 215/1/3 216/1/3
f 218/1/3 215/1/3 217/1/3
f 221/1/3 220/1/3 219/1/3
f 222/1/3 220/1/3 221/1/3
f 225/2/3 224/2/3 223/2/3
f 226/2/3 224/2/3 225/2/3
f 229/2/3 228/2/3 227/2/3
f 230/2/3 228/2/3 229/2/3
f 235/2/3 232/2/3 231/2/3
f 236/2/3 232/2/3 235/2/3
f 237/1/3 234/1/3 233/1/3
f 238/1/3 234/1/3 237/1/3
f 241/2/3 240/2/3 239/2/3
f 242/2/3 240/2/3 241/2/3
f 245/2/3 244/2/3 243/2/3
f 246/2/3 244/2/3 245/2/3
f 251/2/3 248/2/3 247/2/3
f 252/2/3 248/2/3 251/2/3
f 253/3/3 250/3/3 249/3/3
f 254/3/3 250/3/3 253/3/3
f 257/1/3 256/1/3 255/1/3
f 258/1/3 256/1/3 257/1/3
f 260/1/3 259/1/3 258/1/3
f 261/1/3 259/1/3 260/1/3
f 264/3/3 263/3/3 262/3/3
f 265/3/3 263/3/3 264/3/3
f 266/2/4 267/2/4 272/2/4
f 270/2/4 271/2/4 273/2/4
f 271/2/4 272/2/4 273/2/4
f 268/2/4 269/2/4 273/2/4
f 269/2/4 270/2/4 273/2/4
f 272/2/4 267/2/4 274/2/4
f 273/2/4 272/2/4 274/2/4
f 275/2/4 276/2/4 277/2/4
f 277/2/4 276/2/4 278/2/4
f 279/2/4 280/2/4 281/2/4
f 281/2/4 280/2/4 282/2/4
f 283/2/4 284/2/4 285/2/4
f 285/2/4 284/2/4 286/2/4
f 287/2/4 288/2/4 289/2/4
f 289/2/4 288/2/4 290/2/4
f 291/2/4 292/2/4 293/2/4
f 293/2/4 292/2/4 294/2/4
f 295/2/4 296/2/4 297/2/4
f 297/2/4 296/2/4 298/2/4
f 299/2/4 300/2/4 301/2/4
f 301/2/4 300/2/4 302/2/4
f 303/2/4 304/2/4 305/2/4
f 305/2/4 304/2/4 306/2/4
f 307/2/4 308/2/4 309/2/4
f 309/2/4 308/2/4 310/2/4
f 311/2/4 312/2/4 313/2/4
f 313/2/4 312/2/4 314/2/4
f 315/2/4 316/2/4 317/2/4
f 317/2/4 316/2/4 318/2/4
f 319/2/4 320/2/4 321/2/4
f 321/2/4 320/2/4 322/2/4
f 323/2/4 324/2/4 325/2/4
f 325/2/4 324/2/4 326/2/4
f 327/2/4 328/2/4 329/2/4
f 329/2/4 328/2/4 330/2/4
f 331/2/4 332/2/4 333/2/4
f 333/2/4 332/2/4 334/2/4
f 335/2/4 336/2/4 337/2/4
f 337/2/4 336/2/4 338/2/4
f 339/2/4 340/2/4 341/2/4
f 341/2/4 340/2/4 342/2/4
f 343/1/4 344/1/4 345/1/4
f 345/1/4 344/1/4 346/1/4
f 347/3/4 348/3/4 351/3/4
f 351/3/4 348/3/4 352/3/4
f 349/3/4 350/3/4 353/3/4
f 353/3/4 350/3/4 354/3/4
f 355/2/4 356/2/4 357/2/4
f 357/2/4 356/2/4 358/2/4
f 359/3/4 360/3/4 361/3/4
f 361/3/4 360/3/4 362/3/4
f 363/1/4 364/1/4 367/1/4
f 364/1/4 365/1/4 367/1/4
f 367/1/4 365/1/4 368/1/4
f 366/3/4 367/3/4 369/3/4
f 369/3/4 367/3/4 370/3/4
f 371/1/4 372/1/4 373/1/4
f 373/1/4 372/1/4 374/1/4
f 371/1/4 373/1/4 375/1/4
f 375/1/4 373/1/4 376/1/4
f 374/1/4 372/1/4 377/1/4
f 377/1/4 372/1/4 378/1/4
f 382/1/5 380/1/5 379/1/5
f 382/2/5 381/2/5 380/2/5
f 383/2/5 381/2/5 382/2/5
f 384/1/5 382/1/5 379/1/5
f 385/1/5 382/1/5 384/1/5
f 386/1/5 382/1/5 385/1/5
f 389/2/5 387/2/5 386/2/5
f 389/2/5 386/2/5 385/2/5
f 390/2/5 387/2/5 389/2/5
f 391/2/5 387/2/5 390/2/5
f 392/1/5 389/1/5 388/1/5
f 392/1/5 390/1/5 389/1/5
f 393/1/5 390/1/5 392/1/5
f 396/1/5 395/1/5 394/1/5
f 397/1/5 395/1/5 396/1/5
f 400/2/5 399/2/5 398/2/5
f 401/2/5 399/2/5 400/2/5
f 404/2/5 403/2/5 402/2/5
f 405/2/5 403/2/5 404/2/5
f 408/2/5 407/2/5 406/2/5
f 409/2/5 407/2/5 408/2/5
f 412/2/5 411/2/5 410/2/5
f 413/2/5 411/2/5 412/2/5
f 416/1/5 415/1/5 414/1/5
f 417/1/5 416/1/5 414/1/5
f 418/1/5 416/1/5 417/1/5
f 419/2/5 418/2/5 417/2/5
f 420/2/5 418/2/5 419/2/5
f 423/1/5 422/1/5 421/1/5
f 424/1/5 422/1/5 423/1/5
f 427/3/5 426/3/5 425/3/5
f 428/3/5 426/3/5 427/3/5
f 431/3/5 430/3/5 429/3/5
f 432/3/5 430/3/5 431/3/5
f 435/3/5 434/3/5 433/3/5
f 436/3/5 434/3/5 435/3/5
f 439/1/5 438/1/5 437/1/5
f 440/1/5 438/1/5 439/1/5
f 443/1/5 442/1/5 441/1/5
f 444/1/5 442/1/5 443/1/5
f 447/1/5 446/1/5 445/1/5
f 448/1/5 446/1/5 447/1/5
f 449/1/5 446/1/5 448/1/5
f 452/1/5 451/1/5 450/1/5
f 453/1/5 451/1/5 452/1/5
f 456/1/5 455/1/5 454/1/5
f 457/1/5 455/1/5 456/1/5
f 458/1/6 459/1/6 460/1/6
f 458/1/6 460/1/6 461/1/6
f 461/1/6 460/1/6 462/1/6
f 463/1/6 464/1/6 465/1/6
f 465/1/6 464/1/6 466/1/6
f 465/2/6 466/2/6 468/2/6
f 466/2/6 467/2/6 468/2/6
f 468/2/6 467/2/6 469/2/6
f 469/2/6 467/2/6 470/2/6
f 471/2/6 472/2/6 473/2/6
f 473/2/6 472/2/6 474/2/6
f 475/2/6 476/2/6 477/2/6
f 477/2/6 476/2/6 478/2/6
f 479/2/6 480/2/6 481/2/6
f 481/2/6 480/2/6 482/2/6
f 483/2/6 484/2/6 485/2/6
f 485/2/6 484/2/6 486/2/6
f 487/2/6 488/2/6 489/2/6
f 489/2/6 488/2/6 490/2/6
f 491/2/6 492/2/6 493/2/6
f 493/2/6 492/2/6 494/2/6
f 495/2/6 496/2/6 497/2/6
f 497/2/6 496/2/6 498/2/6
f 499/2/6 500/2/6 501/2/6
f 501/2/6 500/2/6 502/2/6
f 503/2/6 504/2/6 505/2/6
f 505/2/6 504/2/6 506/2/6
f 507/2/6 508/2/6 509/2/6
f 509/2/6 508/2/6 510/2/6
f 511/2/6 512/2/6 513/2/6
f 513/2/6 512/2/6 514/2/6
f 515/2/6 516/2/6 517/2/6
f 517/2/6 516/2/6 518/2/6
f 519/2/6 520/2/6 521/2/6
f 521/2/6 520/2/6 522/2/6
f 523/3/6 524/3/6 525/3/6
f 525/3/6 524/3/6 526/3/6
f 527/3/6 528/3/6 530/3/6
f 530/3/6 528/3/6 531/3/6
f 529/1/6 530/1/6 532/1/6
f 532/1/6 530/1/6 533/1/6
f 533/1/6 530/1/6 534/1/6
f 535/2/6 536/2/6 537/2/6
f 537/2/6 536/2/6 538/2/6
f 539/2/6 540/2/6 541/2/6
f 541/2/6 540/2/6 542/2/6
f 543/2/6 544/2/6 545/2/6
f 545/2/6 544/2/6 546/2/6
f 547/2/6 548/2/6 549/2/6
f 549/2/6 548/2/6 550/2/6
f 551/1/6 552/1/6 554/1/6
f 552/2/6 553/2/6 554/2/6
f 554/2/6 553/2/6 555/2/6
f 551/1/6 554/1/6 556/1/6
f 556/1/6 554/1/6 557/1/6
f 558/3/6 559/3/6 560/3/6
f 560/3/6 559/3/6 561/3/6
f 562/1/6 563/1/6 564/1/6
f 564/1/6 563/1/6 565/1/6
