# MagicaVoxel @ Ephtracy

# group
o 

# material
mtllib 7untitled.mtl
usemtl palette

# normals
vn -1 0 0
vn 1 0 0
vn 0 0 1
vn 0 0 -1
vn 0 -1 0
vn 0 1 0

# texcoords
vt 0.388672 0.5
vt 0.400391 0.5
vt 0.685547 0.5
vt 0.806641 0.5

# verts
v -2 0 2
v -2 0 1.9
v -2 0 -1.9
v -2 0 -2
v -2 0.1 1.9
v -2 0.1 -1.9
v -2 0.5 1.9
v -2 0.5 1.8
v -2 0.6 1.9
v -2 0.6 1.8
v -2 1.1 2
v -2 1.1 1.9
v -2 1.1 -1.9
v -2 1.1 -2
v -2 2 1.9
v -2 2 -2
v -1.6 0.5 -1.8
v -1.6 0.5 -1.9
v -1.6 0.6 -1.8
v -1.6 0.6 -1.9
v -1 0.5 1.9
v -1 0.5 1.8
v -1 0.6 1.9
v -1 0.6 1.8
v 2.38419e-07 0.5 -1.8
v 2.38419e-07 0.5 -1.9
v 2.38419e-07 0.6 -1.8
v 2.38419e-07 0.6 -1.9
v 0.8 0.5 1.9
v 0.8 0.5 1.8
v 0.8 0.6 1.9
v 0.8 0.6 1.8
v 1.4 0.5 -1.8
v 1.4 0.5 -1.9
v 1.4 0.6 -1.8
v 1.4 0.6 -1.9
v -1.9 0.1 1.9
v -1.9 0.1 -1.9
v -1.9 0.5 1.9
v -1.9 0.5 1.8
v -1.9 0.6 1.9
v -1.9 0.6 1.8
v -1.9 0.6 -0.6
v -1.9 0.6 -1.5
v -1.9 0.7 -0.6
v -1.9 0.7 -1.5
v -1.9 0.8 1.5
v -1.9 0.8 0.5
v -1.9 0.8 0.2
v -1.9 0.8 -0.3
v -1.9 0.9 1.5
v -1.9 0.9 0.5
v -1.9 0.9 0.2
v -1.9 0.9 -0.3
v -1.9 1.1 1.9
v -1.9 1.1 -1.9
v -1.9 1.1 -2
v -1.9 1.3 0.5
v -1.9 1.3 -0.2
v -1.9 1.4 0.5
v -1.9 1.4 -0.2
v -1.9 1.7 -0.5
v -1.9 1.7 -1.4
v -1.9 1.8 -0.5
v -1.9 1.8 -1.4
v -1.9 2 1.9
v -1.9 2 -2
v -1.8 0.6 -0.6
v -1.8 0.6 -1.5
v -1.8 0.7 -0.6
v -1.8 0.7 -1.5
v -1.8 0.8 1.5
v -1.8 0.8 0.5
v -1.8 0.8 0.2
v -1.8 0.8 -0.3
v -1.8 0.9 1.5
v -1.8 0.9 0.5
v -1.8 0.9 0.2
v -1.8 0.9 -0.3
v -1.8 1.3 0.5
v -1.8 1.3 -0.2
v -1.8 1.4 0.5
v -1.8 1.4 -0.2
v -1.8 1.7 -0.5
v -1.8 1.7 -1.4
v -1.8 1.8 -0.5
v -1.8 1.8 -1.4
v -1.4 0.5 1.9
v -1.4 0.5 1.8
v -1.4 0.6 1.9
v -1.4 0.6 1.8
v -0.6 0.5 -1.8
v -0.6 0.5 -1.9
v -0.6 0.6 -1.8
v -0.6 0.6 -1.9
v 0.3 0.5 1.9
v 0.3 0.5 1.8
v 0.3 0.6 1.9
v 0.3 0.6 1.8
v 1 0.5 -1.8
v 1 0.5 -1.9
v 1 0.6 -1.8
v 1 0.6 -1.9
v 2 0 2
v 2 0 1.9
v 2 0 -1.9
v 2 0 -2
v 2 0.5 1.9
v 2 0.5 1.8
v 2 0.5 -1.8
v 2 0.5 -1.9
v 2 0.6 1.9
v 2 0.6 1.8
v 2 0.6 -1.8
v 2 0.6 -1.9
v 2 1.1 2
v 2 1.1 1.9
v 2 1.1 -1.9
v 2 1.1 -2
v -2 0 2
v -2 1.1 2
v 2 0 2
v 2 1.1 2
v -2 1.1 1.9
v -2 2 1.9
v -1.9 1.1 1.9
v -1.9 2 1.9
v -1.9 0.8 1.5
v -1.9 0.9 1.5
v -1.8 0.8 1.5
v -1.8 0.9 1.5
v -1.9 1.3 0.5
v -1.9 1.4 0.5
v -1.8 1.3 0.5
v -1.8 1.4 0.5
v -1.9 0.8 0.2
v -1.9 0.9 0.2
v -1.8 0.8 0.2
v -1.8 0.9 0.2
v -1.9 1.7 -0.5
v -1.9 1.8 -0.5
v -1.8 1.7 -0.5
v -1.8 1.8 -0.5
v -1.9 0.6 -0.6
v -1.9 0.7 -0.6
v -1.8 0.6 -0.6
v -1.8 0.7 -0.6
v -1.6 0.5 -1.8
v -1.6 0.6 -1.8
v -0.6 0.5 -1.8
v -0.6 0.6 -1.8
v 2.38419e-07 0.5 -1.8
v 2.38419e-07 0.6 -1.8
v 1 0.5 -1.8
v 1 0.6 -1.8
v 1.4 0.5 -1.8
v 1.4 0.6 -1.8
v 2 0.5 -1.8
v 2 0.6 -1.8
v -2 0 -1.9
v -2 0.1 -1.9
v -1.9 0.1 -1.9
v -1.9 1.1 -1.9
v -1.6 0.5 -1.9
v -1.6 0.6 -1.9
v -0.6 0.5 -1.9
v -0.6 0.6 -1.9
v 2.38419e-07 0.5 -1.9
v 2.38419e-07 0.6 -1.9
v 1 0.5 -1.9
v 1 0.6 -1.9
v 1.4 0.5 -1.9
v 1.4 0.6 -1.9
v 2 0 -1.9
v 2 0.5 -1.9
v 2 0.6 -1.9
v 2 1.1 -1.9
v -2 0 1.9
v -2 0.1 1.9
v -1.9 0.1 1.9
v -1.9 0.5 1.9
v -1.9 0.6 1.9
v -1.9 1.1 1.9
v -1.4 0.5 1.9
v -1.4 0.6 1.9
v -1 0.5 1.9
v -1 0.6 1.9
v 0.3 0.5 1.9
v 0.3 0.6 1.9
v 0.8 0.5 1.9
v 0.8 0.6 1.9
v 2 0 1.9
v 2 0.5 1.9
v 2 0.6 1.9
v 2 1.1 1.9
v -1.9 0.5 1.8
v -1.9 0.6 1.8
v -1.4 0.5 1.8
v -1.4 0.6 1.8
v -1 0.5 1.8
v -1 0.6 1.8
v 0.3 0.5 1.8
v 0.3 0.6 1.8
v 0.8 0.5 1.8
v 0.8 0.6 1.8
v 2 0.5 1.8
v 2 0.6 1.8
v -1.9 0.8 0.5
v -1.9 0.9 0.5
v -1.8 0.8 0.5
v -1.8 0.9 0.5
v -1.9 1.3 -0.2
v -1.9 1.4 -0.2
v -1.8 1.3 -0.2
v -1.8 1.4 -0.2
v -1.9 0.8 -0.3
v -1.9 0.9 -0.3
v -1.8 0.8 -0.3
v -1.8 0.9 -0.3
v -1.9 1.7 -1.4
v -1.9 1.8 -1.4
v -1.8 1.7 -1.4
v -1.8 1.8 -1.4
v -1.9 0.6 -1.5
v -1.9 0.7 -1.5
v -1.8 0.6 -1.5
v -1.8 0.7 -1.5
v -2 0 -2
v -2 1.1 -2
v -2 2 -2
v -1.9 1.1 -2
v -1.9 2 -2
v 2 0 -2
v 2 1.1 -2
v -2 0 2
v 2 0 2
v -2 0 1.9
v 2 0 1.9
v -2 0 -1.9
v 2 0 -1.9
v -2 0 -2
v 2 0 -2
v -2 0.1 1.9
v -1.9 0.1 1.9
v -2 0.1 -1.9
v -1.9 0.1 -1.9
v -1.9 0.5 1.9
v -1.4 0.5 1.9
v -1 0.5 1.9
v 0.3 0.5 1.9
v 0.8 0.5 1.9
v 2 0.5 1.9
v -1.9 0.5 1.8
v -1.4 0.5 1.8
v -1 0.5 1.8
v 0.3 0.5 1.8
v 0.8 0.5 1.8
v 2 0.5 1.8
v -1.6 0.5 -1.8
v -0.6 0.5 -1.8
v 2.38419e-07 0.5 -1.8
v 1 0.5 -1.8
v 1.4 0.5 -1.8
v 2 0.5 -1.8
v -1.6 0.5 -1.9
v -0.6 0.5 -1.9
v 2.38419e-07 0.5 -1.9
v 1 0.5 -1.9
v 1.4 0.5 -1.9
v 2 0.5 -1.9
v -1.9 0.6 -0.6
v -1.8 0.6 -0.6
v -1.9 0.6 -1.5
v -1.8 0.6 -1.5
v -1.9 0.8 1.5
v -1.8 0.8 1.5
v -1.9 0.8 0.5
v -1.8 0.8 0.5
v -1.9 0.8 0.2
v -1.8 0.8 0.2
v -1.9 0.8 -0.3
v -1.8 0.8 -0.3
v -1.9 1.3 0.5
v -1.8 1.3 0.5
v -1.9 1.3 -0.2
v -1.8 1.3 -0.2
v -1.9 1.7 -0.5
v -1.8 1.7 -0.5
v -1.9 1.7 -1.4
v -1.8 1.7 -1.4
v -1.9 0.6 1.9
v -1.4 0.6 1.9
v -1 0.6 1.9
v 0.3 0.6 1.9
v 0.8 0.6 1.9
v 2 0.6 1.9
v -1.9 0.6 1.8
v -1.4 0.6 1.8
v -1 0.6 1.8
v 0.3 0.6 1.8
v 0.8 0.6 1.8
v 2 0.6 1.8
v -1.6 0.6 -1.8
v -0.6 0.6 -1.8
v 2.38419e-07 0.6 -1.8
v 1 0.6 -1.8
v 1.4 0.6 -1.8
v 2 0.6 -1.8
v -1.6 0.6 -1.9
v -0.6 0.6 -1.9
v 2.38419e-07 0.6 -1.9
v 1 0.6 -1.9
v 1.4 0.6 -1.9
v 2 0.6 -1.9
v -1.9 0.7 -0.6
v -1.8 0.7 -0.6
v -1.9 0.7 -1.5
v -1.8 0.7 -1.5
v -1.9 0.9 1.5
v -1.8 0.9 1.5
v -1.9 0.9 0.5
v -1.8 0.9 0.5
v -1.9 0.9 0.2
v -1.8 0.9 0.2
v -1.9 0.9 -0.3
v -1.8 0.9 -0.3
v -2 1.1 2
v 2 1.1 2
v -2 1.1 1.9
v -1.9 1.1 1.9
v 2 1.1 1.9
v -1.9 1.1 -1.9
v 2 1.1 -1.9
v -1.9 1.1 -2
v 2 1.1 -2
v -1.9 1.4 0.5
v -1.8 1.4 0.5
v -1.9 1.4 -0.2
v -1.8 1.4 -0.2
v -1.9 1.8 -0.5
v -1.8 1.8 -0.5
v -1.9 1.8 -1.4
v -1.8 1.8 -1.4
v -2 2 1.9
v -1.9 2 1.9
v -2 2 -2
v -1.9 2 -2

# faces
f 5/4/1 2/4/1 1/4/1
f 6/4/1 4/4/1 3/4/1
f 7/4/1 5/4/1 1/4/1
f 7/3/1 6/3/1 5/3/1
f 8/3/1 6/3/1 7/3/1
f 9/4/1 7/4/1 1/4/1
f 9/1/1 8/1/1 7/1/1
f 10/3/1 6/3/1 8/3/1
f 10/1/1 8/1/1 9/1/1
f 11/4/1 9/4/1 1/4/1
f 12/3/1 10/3/1 9/3/1
f 12/4/1 9/4/1 11/4/1
f 13/4/1 4/4/1 6/4/1
f 13/3/1 10/3/1 12/3/1
f 13/3/1 6/3/1 10/3/1
f 14/4/1 4/4/1 13/4/1
f 15/3/1 13/3/1 12/3/1
f 15/3/1 14/3/1 13/3/1
f 16/3/1 14/3/1 15/3/1
f 19/1/1 18/1/1 17/1/1
f 20/1/1 18/1/1 19/1/1
f 23/1/1 22/1/1 21/1/1
f 24/1/1 22/1/1 23/1/1
f 27/1/1 26/1/1 25/1/1
f 28/1/1 26/1/1 27/1/1
f 31/1/1 30/1/1 29/1/1
f 32/1/1 30/1/1 31/1/1
f 35/1/1 34/1/1 33/1/1
f 36/1/1 34/1/1 35/1/1
f 37/3/2 38/3/2 39/3/2
f 39/3/2 38/3/2 40/3/2
f 40/3/2 38/3/2 42/3/2
f 42/3/2 38/3/2 43/3/2
f 43/3/2 38/3/2 44/3/2
f 41/3/2 42/3/2 45/3/2
f 42/3/2 43/3/2 45/3/2
f 44/3/2 38/3/2 46/3/2
f 41/3/2 45/3/2 47/3/2
f 45/3/2 46/3/2 47/3/2
f 47/3/2 46/3/2 48/3/2
f 48/3/2 46/3/2 49/3/2
f 49/3/2 46/3/2 50/3/2
f 41/3/2 47/3/2 51/3/2
f 48/3/2 49/3/2 52/3/2
f 52/3/2 49/3/2 53/3/2
f 50/3/2 46/3/2 54/3/2
f 52/3/2 53/3/2 55/3/2
f 53/3/2 54/3/2 55/3/2
f 41/3/2 51/3/2 55/3/2
f 51/3/2 52/3/2 55/3/2
f 46/3/2 38/3/2 56/3/2
f 55/3/2 54/3/2 56/3/2
f 54/3/2 46/3/2 56/3/2
f 55/3/2 56/3/2 58/3/2
f 56/3/2 57/3/2 58/3/2
f 58/3/2 57/3/2 59/3/2
f 55/3/2 58/3/2 60/3/2
f 59/3/2 57/3/2 61/3/2
f 61/3/2 57/3/2 62/3/2
f 60/3/2 61/3/2 62/3/2
f 62/3/2 57/3/2 63/3/2
f 60/3/2 62/3/2 64/3/2
f 63/3/2 57/3/2 65/3/2
f 55/3/2 60/3/2 66/3/2
f 64/3/2 65/3/2 66/3/2
f 60/3/2 64/3/2 66/3/2
f 65/3/2 57/3/2 67/3/2
f 66/3/2 65/3/2 67/3/2
f 68/2/2 69/2/2 70/2/2
f 70/2/2 69/2/2 71/2/2
f 72/2/2 73/2/2 76/2/2
f 76/2/2 73/2/2 77/2/2
f 74/2/2 75/2/2 78/2/2
f 78/2/2 75/2/2 79/2/2
f 80/2/2 81/2/2 82/2/2
f 82/2/2 81/2/2 83/2/2
f 84/2/2 85/2/2 86/2/2
f 86/2/2 85/2/2 87/2/2
f 88/1/2 89/1/2 90/1/2
f 90/1/2 89/1/2 91/1/2
f 92/1/2 93/1/2 94/1/2
f 94/1/2 93/1/2 95/1/2
f 96/1/2 97/1/2 98/1/2
f 98/1/2 97/1/2 99/1/2
f 100/1/2 101/1/2 102/1/2
f 102/1/2 101/1/2 103/1/2
f 104/4/2 105/4/2 108/4/2
f 106/4/2 107/4/2 111/4/2
f 108/1/2 109/1/2 112/1/2
f 104/4/2 108/4/2 112/4/2
f 112/1/2 109/1/2 113/1/2
f 110/1/2 111/1/2 114/1/2
f 111/4/2 107/4/2 115/4/2
f 114/1/2 111/1/2 115/1/2
f 104/4/2 112/4/2 116/4/2
f 116/4/2 112/4/2 117/4/2
f 115/4/2 107/4/2 118/4/2
f 118/4/2 107/4/2 119/4/2
f 122/4/3 121/4/3 120/4/3
f 123/4/3 121/4/3 122/4/3
f 126/3/3 125/3/3 124/3/3
f 127/3/3 125/3/3 126/3/3
f 130/2/3 129/2/3 128/2/3
f 131/2/3 129/2/3 130/2/3
f 134/2/3 133/2/3 132/2/3
f 135/2/3 133/2/3 134/2/3
f 138/2/3 137/2/3 136/2/3
f 139/2/3 137/2/3 138/2/3
f 142/2/3 141/2/3 140/2/3
f 143/2/3 141/2/3 142/2/3
f 146/2/3 145/2/3 144/2/3
f 147/2/3 145/2/3 146/2/3
f 150/1/3 149/1/3 148/1/3
f 151/1/3 149/1/3 150/1/3
f 154/1/3 153/1/3 152/1/3
f 155/1/3 153/1/3 154/1/3
f 158/1/3 157/1/3 156/1/3
f 159/1/3 157/1/3 158/1/3
f 162/4/3 161/4/3 160/4/3
f 164/4/3 163/4/3 162/4/3
f 165/4/3 163/4/3 164/4/3
f 166/4/3 164/4/3 162/4/3
f 167/4/3 163/4/3 165/4/3
f 168/4/3 166/4/3 162/4/3
f 168/4/3 167/4/3 166/4/3
f 169/4/3 163/4/3 167/4/3
f 169/4/3 167/4/3 168/4/3
f 170/4/3 168/4/3 162/4/3
f 171/4/3 163/4/3 169/4/3
f 172/4/3 170/4/3 162/4/3
f 172/4/3 171/4/3 170/4/3
f 173/4/3 163/4/3 171/4/3
f 173/4/3 171/4/3 172/4/3
f 174/4/3 162/4/3 160/4/3
f 174/4/3 172/4/3 162/4/3
f 175/4/3 172/4/3 174/4/3
f 176/4/3 163/4/3 173/4/3
f 177/4/3 163/4/3 176/4/3
f 178/4/4 179/4/4 180/4/4
f 180/4/4 181/4/4 184/4/4
f 182/4/4 183/4/4 185/4/4
f 180/4/4 184/4/4 186/4/4
f 184/4/4 185/4/4 186/4/4
f 185/4/4 183/4/4 187/4/4
f 186/4/4 185/4/4 187/4/4
f 180/4/4 186/4/4 188/4/4
f 187/4/4 183/4/4 189/4/4
f 180/4/4 188/4/4 190/4/4
f 188/4/4 189/4/4 190/4/4
f 189/4/4 183/4/4 191/4/4
f 190/4/4 189/4/4 191/4/4
f 178/4/4 180/4/4 192/4/4
f 180/4/4 190/4/4 192/4/4
f 192/4/4 190/4/4 193/4/4
f 191/4/4 183/4/4 194/4/4
f 194/4/4 183/4/4 195/4/4
f 196/1/4 197/1/4 198/1/4
f 198/1/4 197/1/4 199/1/4
f 200/1/4 201/1/4 202/1/4
f 202/1/4 201/1/4 203/1/4
f 204/1/4 205/1/4 206/1/4
f 206/1/4 205/1/4 207/1/4
f 208/2/4 209/2/4 210/2/4
f 210/2/4 209/2/4 211/2/4
f 212/2/4 213/2/4 214/2/4
f 214/2/4 213/2/4 215/2/4
f 216/2/4 217/2/4 218/2/4
f 218/2/4 217/2/4 219/2/4
f 220/2/4 221/2/4 222/2/4
f 222/2/4 221/2/4 223/2/4
f 224/2/4 225/2/4 226/2/4
f 226/2/4 225/2/4 227/2/4
f 228/4/4 229/4/4 231/4/4
f 229/3/4 230/3/4 231/3/4
f 231/3/4 230/3/4 232/3/4
f 228/4/4 231/4/4 233/4/4
f 233/4/4 231/4/4 234/4/4
f 237/4/5 236/4/5 235/4/5
f 238/4/5 236/4/5 237/4/5
f 241/4/5 240/4/5 239/4/5
f 242/4/5 240/4/5 241/4/5
f 245/3/5 244/3/5 243/3/5
f 246/3/5 244/3/5 245/3/5
f 253/1/5 248/1/5 247/1/5
f 254/1/5 248/1/5 253/1/5
f 255/1/5 250/1/5 249/1/5
f 256/1/5 250/1/5 255/1/5
f 257/1/5 252/1/5 251/1/5
f 258/1/5 252/1/5 257/1/5
f 265/1/5 260/1/5 259/1/5
f 266/1/5 260/1/5 265/1/5
f 267/1/5 262/1/5 261/1/5
f 268/1/5 262/1/5 267/1/5
f 269/1/5 264/1/5 263/1/5
f 270/1/5 264/1/5 269/1/5
f 273/2/5 272/2/5 271/2/5
f 274/2/5 272/2/5 273/2/5
f 277/2/5 276/2/5 275/2/5
f 278/2/5 276/2/5 277/2/5
f 281/2/5 280/2/5 279/2/5
f 282/2/5 280/2/5 281/2/5
f 285/2/5 284/2/5 283/2/5
f 286/2/5 284/2/5 285/2/5
f 289/2/5 288/2/5 287/2/5
f 290/2/5 288/2/5 289/2/5
f 291/1/6 292/1/6 297/1/6
f 297/1/6 292/1/6 298/1/6
f 293/1/6 294/1/6 299/1/6
f 299/1/6 294/1/6 300/1/6
f 295/1/6 296/1/6 301/1/6
f 301/1/6 296/1/6 302/1/6
f 303/1/6 304/1/6 309/1/6
f 309/1/6 304/1/6 310/1/6
f 305/1/6 306/1/6 311/1/6
f 311/1/6 306/1/6 312/1/6
f 307/1/6 308/1/6 313/1/6
f 313/1/6 308/1/6 314/1/6
f 315/2/6 316/2/6 317/2/6
f 317/2/6 316/2/6 318/2/6
f 319/2/6 320/2/6 321/2/6
f 321/2/6 320/2/6 322/2/6
f 323/2/6 324/2/6 325/2/6
f 325/2/6 324/2/6 326/2/6
f 327/4/6 328/4/6 329/4/6
f 329/4/6 328/4/6 330/4/6
f 330/4/6 328/4/6 331/4/6
f 332/4/6 333/4/6 334/4/6
f 334/4/6 333/4/6 335/4/6
f 336/2/6 337/2/6 338/2/6
f 338/2/6 337/2/6 339/2/6
f 340/2/6 341/2/6 342/2/6
f 342/2/6 341/2/6 343/2/6
f 344/3/6 345/3/6 346/3/6
f 346/3/6 345/3/6 347/3/6
